<svg xmlns="http://www.w3.org/2000/svg"  viewBox="0 0 48 48" width="48px" height="48px"><path d="M 24 4 C 19.599415 4 16 7.599415 16 12 L 16 16 L 12.5 16 C 10.019 16 8 18.019 8 20.5 L 8 39.5 C 8 41.981 10.019 44 12.5 44 L 35.5 44 C 37.981 44 40 41.981 40 39.5 L 40 20.5 C 40 18.019 37.981 16 35.5 16 L 32 16 L 32 12 C 32 7.599415 28.400585 4 24 4 z M 24 7 C 26.779415 7 29 9.220585 29 12 L 29 16 L 19 16 L 19 12 C 19 9.220585 21.220585 7 24 7 z M 17 28 C 18.105 28 19 28.895 19 30 C 19 31.105 18.105 32 17 32 C 15.895 32 15 31.105 15 30 C 15 28.895 15.895 28 17 28 z M 24 28 C 25.105 28 26 28.895 26 30 C 26 31.105 25.105 32 24 32 C 22.895 32 22 31.105 22 30 C 22 28.895 22.895 28 24 28 z M 31 28 C 32.105 28 33 28.895 33 30 C 33 31.105 32.105 32 31 32 C 29.895 32 29 31.105 29 30 C 29 28.895 29.895 28 31 28 z"/></svg>